<?xml version="1.0" encoding="utf-8"?>
<!-- Generator: Adobe Illustrator 22.1.0, SVG Export Plug-In . SVG Version: 6.00 Build 0)  -->
<svg version="1.1"
	 id="NexT" xmlns:cc="http://creativecommons.org/ns#" xmlns:dc="http://purl.org/dc/elements/1.1/" xmlns:rdf="http://www.w3.org/1999/02/22-rdf-syntax-ns#" xmlns:svg="http://www.w3.org/2000/svg"
	 xmlns="http://www.w3.org/2000/svg" xmlns:xlink="http://www.w3.org/1999/xlink" x="0px" y="0px" viewBox="0 0 512 512"
	 style="enable-background:new 0 0 512 512;" xml:space="preserve">
<style type="text/css">
	.st0{fill:#222222;}
	.st1{fill:#FFFFFF;}
</style>
<ellipse class="st0" cx="258.5" cy="256" rx="245" ry="251.7"/>
<path class="st1" d="M117.5,162.9c-4.8,3.6-23.3,18.1-26.7,43.3c-1.2,9.3-0.4,20.3,2.7,27.3c17.6,40.1,140.5,24.1,146,23.3
	c123.6-17,216-81.7,214-86c-1.1-2.3-30,13.6-100.7,34.7c-80,23.8-119.8,26.4-155.3,22c-15.4-1.9-63.8-7.9-68.7-29.3
	c-4.5-19.7,30.1-41.4,25.3-48C150.8,145.6,131.2,152.5,117.5,162.9z"/>
<path class="st1" d="M268.4,82.5c-3.5-1.7-38.2,66.3-51.5,92.4c-62.1,121.6-65.2,146.7-54.5,159c13.9,16,40.5-1.9,64.5,20.3
	c8.1,7.5,8.1,12.3,28.2,54.7c18.3,38.4,21.5,41.2,25.5,41.9c15.7,2.5,33.3-32,54-72.3c19.4-37.9,37.5-82,33.8-83.9
	c-1.8-0.9-7.3,8.3-29.1,38.7c-36.3,50.7-44.9,58.6-52.6,57c-6-1.2-9.6-9.1-16.9-24.8c-14-30.2-9-40.9-19.7-49.2
	c-14.1-10.9-31.2,1-41.7-10.3c-7.5-8.1-5.5-21.3-4-29.5c9.1-51.8,29.2-96.3,29.7-97.4C255.1,132.3,271.2,83.9,268.4,82.5z"/>
</svg>
